<svg width="21" height="20" viewBox="0 0 21 20" fill="none" xmlns="http://www.w3.org/2000/svg">
<path d="M15.294 1.64064C16.618 1.64064 17.862 2.15664 18.798 3.09164C19.7262 4.02156 20.2475 5.28176 20.2475 6.59564C20.2475 7.90952 19.7262 9.16973 18.798 10.0996L10.5 18.3986L2.20096 10.0996C1.27307 9.16977 0.751953 7.90978 0.751953 6.59614C0.751953 5.2825 1.27307 4.02252 2.20096 3.09264C2.65999 2.63094 3.20604 2.26488 3.80751 2.01564C4.40897 1.7664 5.0539 1.63894 5.70496 1.64064C7.02896 1.64064 8.27296 2.15664 9.20896 3.09164L9.96896 3.85164L10.5 4.38264L11.03 3.85164L11.79 3.09164C12.2492 2.63026 12.7953 2.26446 13.3967 2.01541C13.9982 1.76636 14.643 1.63898 15.294 1.64064Z" stroke="#111111" stroke-width="1.5"/>
</svg>
